<svg xmlns="http://www.w3.org/2000/svg" viewBox="0 0 16 16.36"><defs><style>.cls-1{fill:#fff;}</style></defs><g id="Capa_2" data-name="Capa 2"><g id="Capa_1-2" data-name="Capa 1"><path class="cls-1" d="M8.74,16.36a10.12,10.12,0,0,1-3.5-.59,8.19,8.19,0,0,1-2.77-1.69A7.75,7.75,0,0,1,.65,11.49,8.28,8.28,0,0,1,0,8.18,8.28,8.28,0,0,1,.65,4.87,7.54,7.54,0,0,1,2.48,2.28,8.32,8.32,0,0,1,5.28.59,10.48,10.48,0,0,1,8.85,0,10.4,10.4,0,0,1,13,.78,7.71,7.71,0,0,1,16,3L12.63,6A5.41,5.41,0,0,0,11,4.7a4.19,4.19,0,0,0-1.91-.43,4.4,4.4,0,0,0-1.58.27,3,3,0,0,0-1.19.78,3.36,3.36,0,0,0-.76,1.23,4.57,4.57,0,0,0-.27,1.63,4.59,4.59,0,0,0,.27,1.6A3.49,3.49,0,0,0,6.35,11a3.41,3.41,0,0,0,1.17.79,3.9,3.9,0,0,0,1.53.28,5.14,5.14,0,0,0,1.74-.3,6.71,6.71,0,0,0,1.81-1l3,3.62a11.15,11.15,0,0,1-3.26,1.47A12.87,12.87,0,0,1,8.74,16.36ZM11,13.7V7.75h4.58v6.62Z"/></g></g></svg>